<mxfile host="app.diagrams.net" agent="Mozilla/5.0 (Windows NT 10.0; Win64; x64; rv:138.0) Gecko/20100101 Firefox/138.0" version="26.3.0">
  <diagram name="Page-1" id="Ot6dWp1VN40rv4_R31ni">
    <mxGraphModel dx="1461" dy="863" grid="1" gridSize="10" guides="1" tooltips="1" connect="1" arrows="1" fold="1" page="1" pageScale="1" pageWidth="850" pageHeight="1100" math="0" shadow="0">
      <root>
        <mxCell id="0" />
        <mxCell id="1" parent="0" />
        <mxCell id="LHrBHW66_ocUjukzkqTt-6" value="&amp;lt;&amp;lt;enum&amp;gt;&amp;gt;&lt;br&gt;CritÃ¨res" style="swimlane;fontStyle=1;align=center;verticalAlign=top;childLayout=stackLayout;horizontal=1;startSize=41;horizontalStack=0;resizeParent=1;resizeParentMax=0;resizeLast=0;collapsible=1;marginBottom=0;whiteSpace=wrap;html=1;" vertex="1" parent="1">
          <mxGeometry x="200" y="730" width="200" height="220" as="geometry">
            <mxRectangle x="400" y="309" width="100" height="30" as="alternateBounds" />
          </mxGeometry>
        </mxCell>
        <mxCell id="LHrBHW66_ocUjukzkqTt-7" value="&lt;div&gt;GUEST_ANIMAL_ALLERGY&lt;br&gt;HOST_HAS_ANIMAL&lt;br&gt;GUEST_FOOD&lt;br&gt;HOST_FOOD&lt;br&gt;HOBBIES&lt;br&gt;GENDER&lt;br&gt;PAIR_GENDER&lt;br&gt;HISTORY&lt;/div&gt;" style="text;strokeColor=none;fillColor=none;align=left;verticalAlign=top;spacingLeft=4;spacingRight=4;overflow=hidden;rotatable=0;points=[[0,0.5],[1,0.5]];portConstraint=eastwest;whiteSpace=wrap;html=1;" vertex="1" parent="LHrBHW66_ocUjukzkqTt-6">
          <mxGeometry y="41" width="200" height="129" as="geometry" />
        </mxCell>
        <mxCell id="LHrBHW66_ocUjukzkqTt-8" value="" style="line;strokeWidth=1;fillColor=none;align=left;verticalAlign=middle;spacingTop=-1;spacingLeft=3;spacingRight=3;rotatable=0;labelPosition=right;points=[];portConstraint=eastwest;strokeColor=inherit;" vertex="1" parent="LHrBHW66_ocUjukzkqTt-6">
          <mxGeometry y="170" width="200" height="8" as="geometry" />
        </mxCell>
        <mxCell id="LHrBHW66_ocUjukzkqTt-9" value="&lt;div&gt;+ isValid(valeur: String): boolean&lt;/div&gt;&lt;div&gt;+ getType(): char&lt;/div&gt;&lt;div&gt;&lt;br&gt;&lt;/div&gt;" style="text;strokeColor=none;fillColor=none;align=left;verticalAlign=top;spacingLeft=4;spacingRight=4;overflow=hidden;rotatable=0;points=[[0,0.5],[1,0.5]];portConstraint=eastwest;whiteSpace=wrap;html=1;" vertex="1" parent="LHrBHW66_ocUjukzkqTt-6">
          <mxGeometry y="178" width="200" height="42" as="geometry" />
        </mxCell>
        <mxCell id="LHrBHW66_ocUjukzkqTt-10" value="&amp;lt;&amp;lt;class&amp;gt;&amp;gt;&lt;br&gt;Adolescent" style="swimlane;fontStyle=1;align=center;verticalAlign=top;childLayout=stackLayout;horizontal=1;startSize=41;horizontalStack=0;resizeParent=1;resizeParentMax=0;resizeLast=0;collapsible=1;marginBottom=0;whiteSpace=wrap;html=1;" vertex="1" parent="1">
          <mxGeometry x="150" y="290" width="220" height="370" as="geometry">
            <mxRectangle x="400" y="309" width="100" height="30" as="alternateBounds" />
          </mxGeometry>
        </mxCell>
        <mxCell id="LHrBHW66_ocUjukzkqTt-11" value="&lt;div&gt;- lastName: String&lt;/div&gt;&lt;div&gt;- firstName: String&lt;/div&gt;&lt;div&gt;- gender: String&lt;/div&gt;&lt;div&gt;- countryOfOrigin: String&lt;/div&gt;&lt;div&gt;- criteria: Map&amp;lt;Criteres, String&amp;gt;&lt;/div&gt;&lt;div&gt;- dateOfBirth: LocalDate&lt;/div&gt;" style="text;strokeColor=none;fillColor=none;align=left;verticalAlign=top;spacingLeft=4;spacingRight=4;overflow=hidden;rotatable=0;points=[[0,0.5],[1,0.5]];portConstraint=eastwest;whiteSpace=wrap;html=1;" vertex="1" parent="LHrBHW66_ocUjukzkqTt-10">
          <mxGeometry y="41" width="220" height="109" as="geometry" />
        </mxCell>
        <mxCell id="LHrBHW66_ocUjukzkqTt-12" value="" style="line;strokeWidth=1;fillColor=none;align=left;verticalAlign=middle;spacingTop=-1;spacingLeft=3;spacingRight=3;rotatable=0;labelPosition=right;points=[];portConstraint=eastwest;strokeColor=inherit;" vertex="1" parent="LHrBHW66_ocUjukzkqTt-10">
          <mxGeometry y="150" width="220" height="8" as="geometry" />
        </mxCell>
        <mxCell id="LHrBHW66_ocUjukzkqTt-13" value="&lt;div&gt;+ addCriterion(Criteres, String): void&lt;/div&gt;&lt;div&gt;+ toString(): String&lt;/div&gt;&lt;div&gt;+ isCompatible(Adolescent): boolean&lt;/div&gt;&lt;div&gt;+ isAnimalCompatible(Adolescent): boolean&lt;/div&gt;&lt;div&gt;+ isDietCompatible(Adolescent): boolean&lt;/div&gt;&lt;div&gt;+ isHistoryCompatible(Adolescent): boolean&lt;/div&gt;&lt;div&gt;+ getHistoryAffinityBonus(Adolescent): int&lt;/div&gt;&lt;div&gt;+ calculateAffinity(Adolescent): int&lt;/div&gt;&lt;div&gt;+ calculateAgeDifferent(Adolescent): double&lt;/div&gt;&lt;div&gt;&lt;br&gt;&lt;/div&gt;" style="text;strokeColor=none;fillColor=none;align=left;verticalAlign=top;spacingLeft=4;spacingRight=4;overflow=hidden;rotatable=0;points=[[0,0.5],[1,0.5]];portConstraint=eastwest;whiteSpace=wrap;html=1;" vertex="1" parent="LHrBHW66_ocUjukzkqTt-10">
          <mxGeometry y="158" width="220" height="212" as="geometry" />
        </mxCell>
        <mxCell id="LHrBHW66_ocUjukzkqTt-14" value="&amp;lt;&amp;lt;class&amp;gt;&amp;gt;&lt;br&gt;Affectation" style="swimlane;fontStyle=1;align=center;verticalAlign=top;childLayout=stackLayout;horizontal=1;startSize=41;horizontalStack=0;resizeParent=1;resizeParentMax=0;resizeLast=0;collapsible=1;marginBottom=0;whiteSpace=wrap;html=1;" vertex="1" parent="1">
          <mxGeometry x="662" y="330" width="300" height="170" as="geometry">
            <mxRectangle x="400" y="309" width="100" height="30" as="alternateBounds" />
          </mxGeometry>
        </mxCell>
        <mxCell id="LHrBHW66_ocUjukzkqTt-15" value="&lt;div&gt;- host: List&amp;lt;Adolescent&amp;gt;&lt;/div&gt;&lt;div&gt;- visitor: List&amp;lt;Adolescent&amp;gt;&lt;/div&gt;- pairs: List&amp;lt;Map&amp;lt;Adolescent, Adolescent&amp;gt;&amp;gt;" style="text;strokeColor=none;fillColor=none;align=left;verticalAlign=top;spacingLeft=4;spacingRight=4;overflow=hidden;rotatable=0;points=[[0,0.5],[1,0.5]];portConstraint=eastwest;whiteSpace=wrap;html=1;" vertex="1" parent="LHrBHW66_ocUjukzkqTt-14">
          <mxGeometry y="41" width="300" height="69" as="geometry" />
        </mxCell>
        <mxCell id="LHrBHW66_ocUjukzkqTt-16" value="" style="line;strokeWidth=1;fillColor=none;align=left;verticalAlign=middle;spacingTop=-1;spacingLeft=3;spacingRight=3;rotatable=0;labelPosition=right;points=[];portConstraint=eastwest;strokeColor=inherit;" vertex="1" parent="LHrBHW66_ocUjukzkqTt-14">
          <mxGeometry y="110" width="300" height="8" as="geometry" />
        </mxCell>
        <mxCell id="LHrBHW66_ocUjukzkqTt-17" value="&lt;div&gt;+ calculatePairing(): &amp;lt;Map&amp;lt;Adolescent, Adolescent&amp;gt;&amp;gt;&lt;/div&gt;&lt;div&gt;&lt;br&gt;&lt;/div&gt;" style="text;strokeColor=none;fillColor=none;align=left;verticalAlign=top;spacingLeft=4;spacingRight=4;overflow=hidden;rotatable=0;points=[[0,0.5],[1,0.5]];portConstraint=eastwest;whiteSpace=wrap;html=1;" vertex="1" parent="LHrBHW66_ocUjukzkqTt-14">
          <mxGeometry y="118" width="300" height="52" as="geometry" />
        </mxCell>
        <mxCell id="LHrBHW66_ocUjukzkqTt-19" value="&amp;lt;&amp;lt;class&amp;gt;&amp;gt;&lt;br&gt;Main" style="swimlane;fontStyle=1;align=center;verticalAlign=top;childLayout=stackLayout;horizontal=1;startSize=41;horizontalStack=0;resizeParent=1;resizeParentMax=0;resizeLast=0;collapsible=1;marginBottom=0;whiteSpace=wrap;html=1;" vertex="1" parent="1">
          <mxGeometry x="660" y="629" width="300" height="101" as="geometry">
            <mxRectangle x="400" y="309" width="100" height="30" as="alternateBounds" />
          </mxGeometry>
        </mxCell>
        <mxCell id="LHrBHW66_ocUjukzkqTt-21" value="" style="line;strokeWidth=1;fillColor=none;align=left;verticalAlign=middle;spacingTop=-1;spacingLeft=3;spacingRight=3;rotatable=0;labelPosition=right;points=[];portConstraint=eastwest;strokeColor=inherit;" vertex="1" parent="LHrBHW66_ocUjukzkqTt-19">
          <mxGeometry y="41" width="300" height="8" as="geometry" />
        </mxCell>
        <mxCell id="LHrBHW66_ocUjukzkqTt-22" value="&lt;div&gt;+ loadInitialData(): void&lt;br&gt;+ launchAssignment(): void&lt;br&gt;+ displayResults(): void&lt;/div&gt;&lt;div&gt;&lt;br&gt;&lt;/div&gt;" style="text;strokeColor=none;fillColor=none;align=left;verticalAlign=top;spacingLeft=4;spacingRight=4;overflow=hidden;rotatable=0;points=[[0,0.5],[1,0.5]];portConstraint=eastwest;whiteSpace=wrap;html=1;" vertex="1" parent="LHrBHW66_ocUjukzkqTt-19">
          <mxGeometry y="49" width="300" height="52" as="geometry" />
        </mxCell>
        <mxCell id="LHrBHW66_ocUjukzkqTt-24" value="" style="endArrow=classic;html=1;rounded=0;fontSize=12;startSize=8;endSize=8;curved=1;exitX=0.501;exitY=1.006;exitDx=0;exitDy=0;exitPerimeter=0;entryX=0.5;entryY=0;entryDx=0;entryDy=0;" edge="1" parent="1" source="LHrBHW66_ocUjukzkqTt-13" target="LHrBHW66_ocUjukzkqTt-6">
          <mxGeometry width="50" height="50" relative="1" as="geometry">
            <mxPoint x="330" y="710" as="sourcePoint" />
            <mxPoint x="690" y="640" as="targetPoint" />
            <Array as="points">
              <mxPoint x="460" y="680" />
            </Array>
          </mxGeometry>
        </mxCell>
        <mxCell id="LHrBHW66_ocUjukzkqTt-25" value="utilise" style="edgeLabel;html=1;align=center;verticalAlign=middle;resizable=0;points=[];fontSize=12;" vertex="1" connectable="0" parent="LHrBHW66_ocUjukzkqTt-24">
          <mxGeometry x="0.5719" y="-13" relative="1" as="geometry">
            <mxPoint x="1" as="offset" />
          </mxGeometry>
        </mxCell>
        <mxCell id="LHrBHW66_ocUjukzkqTt-26" value="" style="endArrow=classic;html=1;rounded=0;fontSize=12;startSize=8;endSize=8;curved=1;exitX=0.5;exitY=0;exitDx=0;exitDy=0;entryX=0.494;entryY=1.05;entryDx=0;entryDy=0;entryPerimeter=0;" edge="1" parent="1">
          <mxGeometry width="50" height="50" relative="1" as="geometry">
            <mxPoint x="809.38" y="626.4" as="sourcePoint" />
            <mxPoint x="809.5799999999998" y="499.9999999999999" as="targetPoint" />
          </mxGeometry>
        </mxCell>
        <mxCell id="LHrBHW66_ocUjukzkqTt-28" value="crÃ©Ã© et utilise" style="edgeLabel;html=1;align=center;verticalAlign=middle;resizable=0;points=[];fontSize=12;" vertex="1" connectable="0" parent="LHrBHW66_ocUjukzkqTt-26">
          <mxGeometry x="-0.2578" y="2" relative="1" as="geometry">
            <mxPoint x="3" y="-19" as="offset" />
          </mxGeometry>
        </mxCell>
        <mxCell id="LHrBHW66_ocUjukzkqTt-27" value="" style="endArrow=classic;html=1;rounded=0;fontSize=12;startSize=8;endSize=8;curved=1;exitX=-0.006;exitY=0.812;exitDx=0;exitDy=0;entryX=1.012;entryY=-0.002;entryDx=0;entryDy=0;entryPerimeter=0;exitPerimeter=0;" edge="1" parent="1" source="LHrBHW66_ocUjukzkqTt-15" target="LHrBHW66_ocUjukzkqTt-13">
          <mxGeometry width="50" height="50" relative="1" as="geometry">
            <mxPoint x="510" y="480" as="sourcePoint" />
            <mxPoint x="560" y="430" as="targetPoint" />
          </mxGeometry>
        </mxCell>
        <mxCell id="LHrBHW66_ocUjukzkqTt-29" value="&lt;div&gt;concerne&lt;/div&gt;" style="edgeLabel;html=1;align=center;verticalAlign=middle;resizable=0;points=[];fontSize=12;" vertex="1" connectable="0" parent="LHrBHW66_ocUjukzkqTt-27">
          <mxGeometry x="0.1282" y="-4" relative="1" as="geometry">
            <mxPoint as="offset" />
          </mxGeometry>
        </mxCell>
      </root>
    </mxGraphModel>
  </diagram>
</mxfile>
